<svg version="1.1" xmlns="http://www.w3.org/2000/svg" viewBox="0 0 935.6328125 503.375" width="1871.265625" height="1006.75">
  <!-- svg-source:excalidraw -->
  
  <defs>
    <style>
      @font-face {
        font-family: "Virgil";
        src: url("https://excalidraw.com/Virgil.woff2");
      }
      @font-face {
        font-family: "Cascadia";
        src: url("https://excalidraw.com/Cascadia.woff2");
      }
    </style>
  </defs>
  <rect x="0" y="0" width="935.6328125" height="503.375" fill="#ffffff"></rect><g stroke-linecap="round" transform="translate(10 243.96484375) rotate(0 110.5 37.9375)"><path d="M0.33 0.45 C66.52 -0.9, 133.2 0, 219.87 1.02 M-0.51 -0.66 C50.61 -0.16, 101.04 -0.02, 220.3 -0.81 M220.59 -1.58 C219.22 23.87, 219.86 45, 219.99 77.59 M221.24 -0.52 C220.94 15.96, 219.56 33.41, 220.27 76.09 M219.79 74.97 C135.06 77.55, 48.06 75.95, -1.57 76.21 M221.34 75.68 C152.93 78.25, 86.65 77.3, -0.84 76.21 M-0.91 75.5 C0.62 47.94, 0.94 16.44, 0.5 -1.6 M0.63 74.94 C0.5 57.02, -0.69 40.31, -0.08 -0.02" stroke="#000000" stroke-width="1" fill="none"></path></g><g transform="translate(15 269.40234375) rotate(0 105.5 12.5)"><text x="105.5" y="18" font-family="Virgil, Segoe UI Emoji" font-size="20px" fill="#000000" text-anchor="middle" style="white-space: pre;" direction="ltr">User</text></g><g stroke-linecap="round" transform="translate(113.6328125 423.4140625) rotate(0 137 34.98046875)"><path d="M-1.29 -1.35 C58.62 1.9, 115.32 0.85, 274.37 0.12 M0.44 0.63 C71.16 0.42, 142.2 0.01, 273.86 -0.52 M272.99 -0.7 C272.13 22.91, 273.81 45.84, 274.89 71.81 M273.94 -0.26 C273.68 26.01, 273.13 50.69, 274.66 69.3 M274.11 68.95 C181.39 70.39, 91.26 70.1, -0.54 71.42 M273.8 69.59 C194.04 69.77, 113.77 69.67, 0.25 70.19 M-1.66 71.67 C-1.58 40.77, 1.53 14.13, -1.24 1.28 M0.97 69.78 C-0.82 42.86, -0.2 17.35, -0.66 -0.05" stroke="#000000" stroke-width="1" fill="none"></path></g><g stroke-linecap="round"><g transform="translate(154.34462296191396 329.50390625) rotate(0 29.017209219710537 43.13529150467366)"><path d="M0.19 -0.62 C10.24 14.06, 49.45 72.25, 59.2 86.89 M-1.17 1.66 C8.79 16.07, 47.71 71.03, 58.09 84.96" stroke="#000000" stroke-width="1" fill="none"></path></g><g transform="translate(154.34462296191396 329.50390625) rotate(0 29.017209219710537 43.13529150467366)"><path d="M32.21 67.62 C38.93 70.26, 44.75 74.64, 59.72 84.9 M33.25 67.66 C40.75 72.21, 46.64 77.51, 57.93 85.31" stroke="#000000" stroke-width="1" fill="none"></path></g><g transform="translate(154.34462296191396 329.50390625) rotate(0 29.017209219710537 43.13529150467366)"><path d="M48.83 55.59 C51.92 60.8, 54.23 67.72, 59.72 84.9 M49.88 55.63 C53.18 63.19, 54.77 71.61, 57.93 85.31" stroke="#000000" stroke-width="1" fill="none"></path></g></g><g transform="translate(118.6328125 445.89453125) rotate(0 132 12.5)"><text x="132" y="18" font-family="Virgil, Segoe UI Emoji" font-size="20px" fill="#000000" text-anchor="middle" style="white-space: pre;" direction="ltr">Create new Design</text></g><g stroke-linecap="round" transform="translate(336.58203125 243.40234375) rotate(0 110.5 37.9375)"><path d="M-1.39 1.01 C48.55 -2.37, 96.74 -0.65, 221 1.67 M-0.18 0.83 C50.11 -1.88, 100.44 -0.92, 220.33 0.53 M222.54 0.17 C221.85 15.66, 222.33 34.46, 220.52 76.99 M221.67 -0.7 C220.79 16.5, 221.35 32.89, 221.63 75.53 M219.75 76.94 C134.31 76.71, 49.48 77.8, 0.07 77.29 M220.75 76.31 C149.79 75.52, 78.51 74.02, 0.35 75.01 M1.94 77.01 C-0.64 59.43, -0.79 40.41, -1.35 1.03 M0.55 75.76 C1.32 52.5, 0.55 27.46, 0.41 0.38" stroke="#000000" stroke-width="1" fill="none"></path></g><g transform="translate(341.58203125 268.83984375) rotate(0 105.5 12.5)"><text x="105.5" y="18" font-family="Virgil, Segoe UI Emoji" font-size="20px" fill="#000000" text-anchor="middle" style="white-space: pre;" direction="ltr">Order</text></g><g stroke-linecap="round"><g transform="translate(360.34765625 411.890625) rotate(0 39.16012917593122 -36.84832203939558)"><path d="M-0.08 0.86 C13.37 -11.23, 66.57 -60.66, 79.9 -73.01 M-1.58 0.27 C11.86 -12.09, 65.92 -62, 79.46 -74.56" stroke="#000000" stroke-width="1" fill="none"></path></g><g transform="translate(360.34765625 411.890625) rotate(0 39.16012917593122 -36.84832203939558)"><path d="M67.17 -46.28 C70.88 -52.53, 73.73 -61.67, 78.2 -74.16 M66.03 -48.67 C70.47 -56.69, 76.32 -66.17, 78.69 -73.76" stroke="#000000" stroke-width="1" fill="none"></path></g><g transform="translate(360.34765625 411.890625) rotate(0 39.16012917593122 -36.84832203939558)"><path d="M53.24 -61.34 C60.16 -64.04, 66.29 -69.65, 78.2 -74.16 M52.09 -63.74 C61.46 -66.31, 72.23 -70.48, 78.69 -73.76" stroke="#000000" stroke-width="1" fill="none"></path></g></g><g stroke-linecap="round" transform="translate(703.2265625 247.17578125) rotate(0 111.203125 37.072265625)"><path d="M1.38 0.13 C55.19 -2.49, 111.42 -0.64, 221.75 0.46 M0.55 -0.49 C77.22 -0.78, 154.02 -0.48, 223.05 0.14 M222.54 1.25 C223.4 29.75, 221.06 56.48, 223.98 73.03 M223.09 -0.92 C222.36 25.91, 224.1 52.72, 223.18 74.56 M223.18 73.54 C161.75 72.79, 102.8 74.51, -0.41 73.55 M223.1 73.55 C156.21 73.62, 89.1 72.23, 0.71 74.51 M-1.31 72.45 C1.2 48.37, 1.37 23.33, -2 -1.08 M0.57 74.35 C0.86 58.83, 0.99 43.85, 0.86 -0.49" stroke="#000000" stroke-width="1" fill="none"></path></g><g transform="translate(708.2265625 259.248046875) rotate(0 106 25)"><text x="106" y="18" font-family="Virgil, Segoe UI Emoji" font-size="20px" fill="#000000" text-anchor="middle" style="white-space: pre;" direction="ltr">Merchant received </text><text x="106" y="43" font-family="Virgil, Segoe UI Emoji" font-size="20px" fill="#000000" text-anchor="middle" style="white-space: pre;" direction="ltr">new order</text></g><g stroke-linecap="round"><g transform="translate(572.5859375 284.31640625) rotate(0 56.85686536634341 -0.15072936231271683)"><path d="M1.06 -0.79 C19.59 -0.91, 92.82 0.12, 111.36 0.27 M0.15 1.41 C19.04 1.43, 94.99 -1.72, 113.56 -1.71" stroke="#000000" stroke-width="1" fill="none"></path></g><g transform="translate(572.5859375 284.31640625) rotate(0 56.85686536634341 -0.15072936231271683)"><path d="M84.3 7.57 C94.72 5.52, 103.18 0.63, 114.51 -2.32 M86.35 8.51 C96.69 4.6, 105.63 1.71, 112.75 -1.56" stroke="#000000" stroke-width="1" fill="none"></path></g><g transform="translate(572.5859375 284.31640625) rotate(0 56.85686536634341 -0.15072936231271683)"><path d="M83.83 -12.94 C94.57 -8.57, 103.18 -7.05, 114.51 -2.32 M85.88 -12.01 C96.31 -8.38, 105.43 -3.74, 112.75 -1.56" stroke="#000000" stroke-width="1" fill="none"></path></g></g><g stroke-linecap="round"><g transform="translate(816.091796875 231.14453125) rotate(0 -1.0385505974664966 -50.42021085638554)"><path d="M-0.01 0.65 C-0.24 -16.29, -0.99 -84.47, -1.28 -101.49 M-1.47 -0.06 C-1.84 -16.89, -1.88 -83.69, -2.07 -100.45" stroke="#000000" stroke-width="1" fill="none"></path></g><g transform="translate(816.091796875 231.14453125) rotate(0 -1.0385505974664966 -50.42021085638554)"><path d="M9.42 -71.8 C3.54 -81.2, 0.42 -91.28, -3.6 -99.67 M7.77 -71.91 C5.63 -80.79, 2.1 -88.34, -1.64 -100.24" stroke="#000000" stroke-width="1" fill="none"></path></g><g transform="translate(816.091796875 231.14453125) rotate(0 -1.0385505974664966 -50.42021085638554)"><path d="M-11.1 -71.69 C-10.69 -81.12, -7.52 -91.23, -3.6 -99.67 M-12.75 -71.79 C-8.66 -80.82, -5.98 -88.41, -1.64 -100.24" stroke="#000000" stroke-width="1" fill="none"></path></g></g><g stroke-linecap="round" transform="translate(713.140625 10) rotate(0 102.5 52.79296875)"><path d="M-1.23 -0.29 C66.83 2.74, 136.89 0.84, 204.56 -0.09 M-0.72 -0.75 C50.4 -0.58, 100.01 0.13, 204.28 -0.87 M203.46 -0.69 C206.43 35.66, 203.76 71.09, 206.99 107.18 M205.65 -0.32 C203.35 34.51, 204.22 70.96, 205.47 104.63 M205.08 105.61 C155.89 104.68, 104.5 106.51, 0.89 105.48 M205.45 106.17 C130.04 106.94, 56.03 108.13, 0.02 106.38 M1.3 106.19 C1.43 73.73, -0.65 42.44, 1.95 1.17 M0.43 104.77 C0.35 79.8, 0.03 55.13, -0.79 -0.38" stroke="#000000" stroke-width="1" fill="none"></path></g><g transform="translate(718.140625 25.29296875) rotate(0 97.5 37.5)"><text x="97.5" y="18" font-family="Virgil, Segoe UI Emoji" font-size="20px" fill="#000000" text-anchor="middle" style="white-space: pre;" direction="ltr">Factory process</text><text x="97.5" y="43" font-family="Virgil, Segoe UI Emoji" font-size="20px" fill="#000000" text-anchor="middle" style="white-space: pre;" direction="ltr"></text><text x="97.5" y="68" font-family="Virgil, Segoe UI Emoji" font-size="20px" fill="#000000" text-anchor="middle" style="white-space: pre;" direction="ltr">to be real product</text></g><g stroke-linecap="round" transform="translate(337.40625 10.7421875) rotate(0 102.5 49.5)"><path d="M1.65 -1.74 C61.47 -1.72, 120.64 -0.06, 206.3 0.86 M-0.16 0.4 C76.23 0.16, 153.17 -1.44, 204.88 0.03 M203.32 -0.72 C207.31 26.39, 206.34 52.91, 204.54 100.26 M205.2 0.69 C203.99 36.23, 203.63 72.23, 205.68 98.22 M203.61 100.22 C127.37 99.79, 50.39 98.33, -1.68 99.11 M205.64 99.89 C148.45 99.65, 90.38 100.52, 0.61 99.01 M-1.42 99.35 C-1.68 69.37, -0.85 42.67, 1.31 -0.91 M-0.75 98.88 C0.83 77.29, 0.63 55.49, 0.35 0.97" stroke="#000000" stroke-width="1" fill="none"></path></g><g transform="translate(342.40625 47.7421875) rotate(0 97.5 12.5)"><text x="97.5" y="18" font-family="Virgil, Segoe UI Emoji" font-size="20px" fill="#000000" text-anchor="middle" style="white-space: pre;" direction="ltr">Prepare shipping</text></g><g stroke-linecap="round"><g transform="translate(698.3125 65.40625) rotate(0 -68.83918759926229 0.9265477261506021)"><path d="M-0.73 0.6 C-23.89 0.47, -116.07 0.28, -138.77 0.42 M1.09 -0.13 C-21.73 0.45, -113.54 2.02, -136.61 1.99" stroke="#000000" stroke-width="1" fill="none"></path></g><g transform="translate(698.3125 65.40625) rotate(0 -68.83918759926229 0.9265477261506021)"><path d="M-107.52 -10.29 C-117.26 -4.07, -124.51 -2.02, -136.6 3.57 M-107.74 -7.7 C-116.08 -6, -124.18 -2.86, -136.98 1.88" stroke="#000000" stroke-width="1" fill="none"></path></g><g transform="translate(698.3125 65.40625) rotate(0 -68.83918759926229 0.9265477261506021)"><path d="M-107.33 10.23 C-117.33 9.91, -124.64 5.42, -136.6 3.57 M-107.54 12.82 C-115.95 8.94, -124.1 6.49, -136.98 1.88" stroke="#000000" stroke-width="1" fill="none"></path></g></g><g stroke-linecap="round"><g transform="translate(318.38671875 57.8515625) rotate(0 -99.85475925348698 86.32152672156691)"><path d="M-0.39 -0.39 C-33.74 28.66, -167.3 145.24, -200.98 174.29 M1.6 -1.64 C-31.72 27.08, -167.14 143.75, -201.31 172.67" stroke="#000000" stroke-width="1" fill="none"></path></g><g transform="translate(318.38671875 57.8515625) rotate(0 -99.85475925348698 86.32152672156691)"><path d="M-187.21 148.49 C-188.26 151.79, -192.22 157.11, -201.11 173.43 M-187.31 146.54 C-189.4 151.55, -193.49 157.67, -200.32 173.57" stroke="#000000" stroke-width="1" fill="none"></path></g><g transform="translate(318.38671875 57.8515625) rotate(0 -99.85475925348698 86.32152672156691)"><path d="M-173.87 164.09 C-177.91 163.85, -184.86 165.68, -201.11 173.43 M-173.98 162.14 C-179 163.75, -186.01 166.45, -200.32 173.57" stroke="#000000" stroke-width="1" fill="none"></path></g></g></svg>