<svg version="1.1" xmlns="http://www.w3.org/2000/svg" viewBox="0 0 968.263671875 480.7109375" width="1936.52734375" height="961.421875">
  <!-- svg-source:excalidraw -->
  
  <defs>
    <style>
      @font-face {
        font-family: "Virgil";
        src: url("https://excalidraw.com/Virgil.woff2");
      }
      @font-face {
        font-family: "Cascadia";
        src: url("https://excalidraw.com/Cascadia.woff2");
      }
    </style>
  </defs>
  <rect x="0" y="0" width="968.263671875" height="480.7109375" fill="#ffffff"></rect><g stroke-linecap="round" transform="translate(10 167.94140625) rotate(0 101.080078125 46.05859375)"><path d="M0.42 1.02 C61.31 2.16, 120.03 -1.09, 202.7 1.24 M0.09 0.89 C47.27 1.26, 96.66 1.51, 202.37 0.59 M201.38 -0.75 C203.21 35.47, 203.61 68.5, 200.91 92.95 M201.99 -0.21 C201.46 29.2, 202.85 57.85, 203.09 92.29 M203.85 91.03 C137.36 94.15, 75.56 93.61, 1.14 93.25 M201.45 92.34 C136.8 90.88, 70.46 91.36, 0.32 91.56 M-0.36 91.77 C-1.06 60.52, -0.37 25.72, -0.73 -1.08 M-0.58 91.58 C-0.05 63.3, -0.48 34.06, 0.69 -0.51" stroke="#000000" stroke-width="1" fill="none"></path></g><g transform="translate(15 201.5) rotate(0 96 12.5)"><text x="96" y="18" font-family="Virgil, Segoe UI Emoji" font-size="20px" fill="#000000" text-anchor="middle" style="white-space: pre;" direction="ltr">User</text></g><g stroke-linecap="round"><g transform="translate(224.43359375 220.87109375) rotate(0 80.82746422022575 0.20503268827201282)"><path d="M-0.07 -0.67 C27.26 -0.78, 136.01 -1.28, 163.22 -1.16 M-1.56 1.59 C25.73 1.64, 135.26 -0.19, 162.65 -0.23" stroke="#000000" stroke-width="1" fill="none"></path></g><g transform="translate(224.43359375 220.87109375) rotate(0 80.82746422022575 0.20503268827201282)"><path d="M133.44 11.52 C139.4 8.95, 148.09 6.91, 160.82 1.41 M134.49 9.68 C143.75 5.54, 155.21 1.97, 162.2 -0.17" stroke="#000000" stroke-width="1" fill="none"></path></g><g transform="translate(224.43359375 220.87109375) rotate(0 80.82746422022575 0.20503268827201282)"><path d="M133.24 -9 C139.15 -6.67, 147.89 -3.8, 160.82 1.41 M134.29 -10.84 C143.68 -7.54, 155.21 -3.66, 162.2 -0.17" stroke="#000000" stroke-width="1" fill="none"></path></g></g><g stroke-linecap="round" transform="translate(399.978515625 175.8359375) rotate(0 101.080078125 46.05859375)"><path d="M-0.85 -1.36 C53.2 -0.49, 103.67 -2.22, 200.61 -0.61 M0.3 -0.5 C59.62 -2.05, 119.11 -2.37, 201.43 -0.18 M201.82 -1.18 C203.69 28.53, 201.3 57.06, 201.77 90.91 M201.79 0.24 C202.99 33.94, 203.04 67.04, 201.65 91.61 M202.29 91.37 C148.31 93.92, 92.9 94.73, -0.48 92.98 M201.73 92.48 C122.05 91.51, 43.2 91.49, 0.09 92.84 M-0.17 92.21 C-0.09 58.03, 1.34 23.95, -0.8 -1.39 M0.04 91.36 C1.7 64.27, 0.04 36.1, 0 0.23" stroke="#000000" stroke-width="1" fill="none"></path></g><g transform="translate(404.978515625 196.89453125) rotate(0 96 25)"><text x="96" y="18" font-family="Virgil, Segoe UI Emoji" font-size="20px" fill="#000000" text-anchor="middle" style="white-space: pre;" direction="ltr">Discuss with</text><text x="96" y="43" font-family="Virgil, Segoe UI Emoji" font-size="20px" fill="#000000" text-anchor="middle" style="white-space: pre;" direction="ltr">merchant</text></g><g stroke-linecap="round"><g transform="translate(500.57421875 165.54296875) rotate(0 -191.896484375 -62.140625)"><path d="M0 0 C-30.14 -20.71, -116.9 -122.24, -180.87 -124.28 C-244.83 -126.32, -349.97 -30.92, -383.79 -12.25 M0 0 C-30.14 -20.71, -116.9 -122.24, -180.87 -124.28 C-244.83 -126.32, -349.97 -30.92, -383.79 -12.25" stroke="#000000" stroke-width="1" fill="none"></path></g><g transform="translate(500.57421875 165.54296875) rotate(0 -191.896484375 -62.140625)"><path d="M-366.64 -36.86 C-370.44 -31.41, -374.24 -25.95, -383.79 -12.25 M-366.64 -36.86 C-371.29 -30.19, -375.94 -23.51, -383.79 -12.25" stroke="#000000" stroke-width="1" fill="none"></path></g><g transform="translate(500.57421875 165.54296875) rotate(0 -191.896484375 -62.140625)"><path d="M-354.83 -20.07 C-361.25 -18.34, -367.66 -16.61, -383.79 -12.25 M-354.83 -20.07 C-362.68 -17.95, -370.53 -15.83, -383.79 -12.25" stroke="#000000" stroke-width="1" fill="none"></path></g></g><g transform="translate(242.39453125 10) rotate(0 78.5 12.5)"><text x="0" y="18" font-family="Virgil, Segoe UI Emoji" font-size="20px" fill="#000000" text-anchor="start" style="white-space: pre;" direction="ltr">Loop to discuss</text></g><g stroke-linecap="round" transform="translate(753.2958984375 172.24609375) rotate(0 101.080078125 46.05859375)"><path d="M1.46 -1.75 C65.14 -1.58, 130.9 -1.59, 201.67 -1.33 M-0.56 0.53 C76.75 -1.37, 154.26 -1.23, 201.31 0.86 M201.31 -0.35 C201.03 36.31, 201.28 71.68, 201.7 90.32 M202.02 0.13 C201.52 19.18, 201.03 39.74, 202.66 91.3 M202.92 92.64 C135.19 93.4, 70.04 92.07, -0.06 91.6 M201.65 91.85 C156.8 92.88, 110.96 93.43, -0.44 91.48 M-1.82 90.41 C-0.6 73.1, -0.31 53.17, -1.48 -1.55 M-0.61 91.48 C0.42 59.8, 0.28 26.97, -0.54 -0.61" stroke="#000000" stroke-width="1" fill="none"></path></g><g transform="translate(758.2958984375 205.8046875) rotate(0 96 12.5)"><text x="96" y="18" font-family="Virgil, Segoe UI Emoji" font-size="20px" fill="#000000" text-anchor="middle" style="white-space: pre;" direction="ltr">Finalize the Design</text></g><g stroke-linecap="round"><g transform="translate(615.05859375 223.359375) rotate(0 62.4765625 0)"><path d="M0 0 C20.83 0, 104.13 0, 124.95 0 M0 0 C20.83 0, 104.13 0, 124.95 0" stroke="#000000" stroke-width="1" fill="none"></path></g><g transform="translate(615.05859375 223.359375) rotate(0 62.4765625 0)"><path d="M96.76 10.26 C106.03 6.89, 115.3 3.51, 124.95 0 M96.76 10.26 C106.91 6.57, 117.06 2.87, 124.95 0" stroke="#000000" stroke-width="1" fill="none"></path></g><g transform="translate(615.05859375 223.359375) rotate(0 62.4765625 0)"><path d="M96.76 -10.26 C106.03 -6.89, 115.3 -3.51, 124.95 0 M96.76 -10.26 C106.91 -6.57, 117.06 -2.87, 124.95 0" stroke="#000000" stroke-width="1" fill="none"></path></g></g><g stroke-linecap="round" transform="translate(756.103515625 376.78515625) rotate(0 101.080078125 46.05859375)"><path d="M-1.55 0.99 C40.64 -0.21, 83.02 2.29, 200.43 1.1 M-0.84 0.59 C81.65 -0.88, 162.5 -0.07, 202.16 -0.63 M201.58 0.46 C201.36 34.99, 200.15 67.06, 202.37 90.48 M202.58 -0.52 C203.49 18.64, 204.04 37.84, 202 91.54 M201.98 91.25 C134.54 90.97, 69.57 92.39, 1.75 90.85 M201.75 91.33 C160.65 89.82, 119.36 91.24, -0.43 92.6 M1.83 93.08 C1.33 57.65, 1.23 18.6, 1.31 1.69 M0.8 93.08 C1.55 62.28, 0.21 33.82, -0.91 0.01" stroke="#000000" stroke-width="1" fill="none"></path></g><g transform="translate(761.103515625 385.34375) rotate(0 96 37.5)"><text x="96" y="18" font-family="Virgil, Segoe UI Emoji" font-size="20px" fill="#000000" text-anchor="middle" style="white-space: pre;" direction="ltr">Factory process</text><text x="96" y="43" font-family="Virgil, Segoe UI Emoji" font-size="20px" fill="#000000" text-anchor="middle" style="white-space: pre;" direction="ltr"></text><text x="96" y="68" font-family="Virgil, Segoe UI Emoji" font-size="20px" fill="#000000" text-anchor="middle" style="white-space: pre;" direction="ltr">to be real product</text></g><g stroke-linecap="round"><g transform="translate(853.2421875 278.1484375) rotate(0 0 42.40234375)"><path d="M0 0 C0 14.13, 0 70.67, 0 84.8 M0 0 C0 14.13, 0 70.67, 0 84.8" stroke="#000000" stroke-width="1" fill="none"></path></g><g transform="translate(853.2421875 278.1484375) rotate(0 0 42.40234375)"><path d="M-10.26 56.61 C-7.15 65.17, -4.04 73.72, 0 84.8 M-10.26 56.61 C-7.27 64.83, -4.28 73.05, 0 84.8" stroke="#000000" stroke-width="1" fill="none"></path></g><g transform="translate(853.2421875 278.1484375) rotate(0 0 42.40234375)"><path d="M10.26 56.61 C7.15 65.17, 4.04 73.72, 0 84.8 M10.26 56.61 C7.27 64.83, 4.28 73.05, 0 84.8" stroke="#000000" stroke-width="1" fill="none"></path></g></g><g stroke-linecap="round" transform="translate(400.681640625 378.59375) rotate(0 101.080078125 46.05859375)"><path d="M0.14 0.23 C46.05 -0.12, 93.43 -0.14, 202.43 0.47 M-0.49 -0.63 C57.52 -0.68, 115.85 -1.19, 202.32 0.63 M200.66 0.29 C202.62 35.57, 201.26 74.18, 201.41 92.87 M202.8 -0.02 C201.95 32.21, 202.21 61.9, 201.61 92.93 M201.91 92.71 C139.29 95.18, 80.08 93.79, 0.23 91.56 M202.42 91.33 C129.9 93.16, 58.44 93.14, -0.55 92.98 M0.57 92.31 C-1.12 71.89, 0.51 56.02, 1.68 0.88 M-0.84 91.39 C-1.43 58.17, -0.23 22.53, -0.64 0.67" stroke="#000000" stroke-width="1" fill="none"></path></g><g transform="translate(405.681640625 412.15234375) rotate(0 96 12.5)"><text x="96" y="18" font-family="Virgil, Segoe UI Emoji" font-size="20px" fill="#000000" text-anchor="middle" style="white-space: pre;" direction="ltr">Prepare shipping</text></g><g stroke-linecap="round"><g transform="translate(751.74609375 423.19921875) rotate(0 -68.36328125 0)"><path d="M0 0 C-22.79 0, -113.94 0, -136.73 0 M0 0 C-22.79 0, -113.94 0, -136.73 0" stroke="#000000" stroke-width="1" fill="none"></path></g><g transform="translate(751.74609375 423.19921875) rotate(0 -68.36328125 0)"><path d="M-108.54 -10.26 C-117.73 -6.92, -126.92 -3.57, -136.73 0 M-108.54 -10.26 C-119.41 -6.3, -130.29 -2.34, -136.73 0" stroke="#000000" stroke-width="1" fill="none"></path></g><g transform="translate(751.74609375 423.19921875) rotate(0 -68.36328125 0)"><path d="M-108.54 10.26 C-117.73 6.92, -126.92 3.57, -136.73 0 M-108.54 10.26 C-119.41 6.3, -130.29 2.34, -136.73 0" stroke="#000000" stroke-width="1" fill="none"></path></g></g><g stroke-linecap="round"><g transform="translate(388.84375 418.83984375) rotate(0 -139.259765625 -70.45703125)"><path d="M0 0 C-46.42 -23.49, -232.1 -117.43, -278.52 -140.91 M0 0 C-46.42 -23.49, -232.1 -117.43, -278.52 -140.91" stroke="#000000" stroke-width="1" fill="none"></path></g><g transform="translate(388.84375 418.83984375) rotate(0 -139.259765625 -70.45703125)"><path d="M-248.73 -137.34 C-258.78 -138.55, -268.82 -139.75, -278.52 -140.91 M-248.73 -137.34 C-259.79 -138.67, -270.85 -139.99, -278.52 -140.91" stroke="#000000" stroke-width="1" fill="none"></path></g><g transform="translate(388.84375 418.83984375) rotate(0 -139.259765625 -70.45703125)"><path d="M-258 -119.03 C-264.92 -126.41, -271.84 -133.79, -278.52 -140.91 M-258 -119.03 C-265.62 -127.16, -273.24 -135.28, -278.52 -140.91" stroke="#000000" stroke-width="1" fill="none"></path></g></g></svg>